<svg width="35" height="35" viewBox="0 0 35 35" fill="none" xmlns="http://www.w3.org/2000/svg">
<path d="M10 18H25" stroke="#D41616" stroke-width="3" stroke-linecap="round" stroke-linejoin="round"/>
<path d="M1 25.9563C2.58547 26.3604 4.04085 27.3385 5.18503 28.7687C6.32921 30.1989 7.11165 32.0182 7.435 34M1 17V5.125C1 4.03098 1.34768 2.98177 1.96655 2.20818C2.58542 1.4346 3.42479 1 4.3 1H30.7C31.5752 1 32.4146 1.4346 33.0335 2.20818C33.6523 2.98177 34 4.03098 34 5.125V29.875C34 30.969 33.6523 32.0182 33.0335 32.7918C32.4146 33.5654 31.5752 34 30.7 34H17" stroke="white" stroke-width="2" stroke-linecap="round" stroke-linejoin="round"/>
<path d="M1 34H1.01" stroke="white" stroke-width="2" stroke-linecap="round" stroke-linejoin="round"/>
</svg>
